<svg xmlns="http://www.w3.org/2000/svg" width="24" height="24" viewBox="0 0 24 24" fill="currentColor" class="bi bi-instagram">
  <path d="M8 0C5.829 0 5.556.01 4.703.048 3.85.088 3.269.222 2.76.42a3.917 3.917 0 0 0-1.417.923A3.927 3.927 0 0 0 .42 2.76C.222 3.268.087 3.85.048 4.7.01 5.555 0 5.827 0 8.001c0 2.172.01 2.444.048 3.297.04.852.174 1.433.372 1.942.205.526.478.972.923 1.417.444.445.89.719 1.416.923.51.198 1.09.333 1.942.372C5.555 15.99 5.827 16 8 16s2.444-.01 3.297-.048c.852-.04 1.433-.174 1.942-.372.526-.205.972-.478 1.417-.923.445-.444.718-.891.923-1.417.198-.509.333-1.09.372-1.942C15.99 10.445 16 10.173 16 8s-.01-2.445-.048-3.297c-.04-.852-.174-1.433-.372-1.942a3.916 3.916 0 0 0-.923-1.417A3.917 3.917 0 0 0 13.24.42c-.51-.198-1.092-.333-1.942-.372C10.445.01 10.173 0 8 0zm0 1.442c2.136 0 2.389.007 3.232.046.78.035 1.204.166 1.486.275.373.145.64.319.92.599.28.28.453.546.598.92.11.282.24.705.275 1.486.039.843.047 1.096.047 3.232s-.008 2.389-.047 3.232c-.035.78-.166 1.203-.275 1.485a2.47 2.47 0 0 1-.598.92.247 2.47 0 0 1-.92.598c-.282.11-.705.24-1.485.276-.843.038-1.096.047-3.232.047s-2.39-.009-3.233-.047c-.78-.036-1.203-.166-1.485-.276a2.47 2.47 0 0 1-.92-.598 2.47 2.47 0 0 1-.598-.92c-.11-.282-.24-.705-.276-1.485C1.442 10.389 1.434 10.136 1.434 8s.008-2.389.047-3.232c.036-.78.166-1.204.276-1.486.145-.373.319-.64.599-.92.28-.28.546-.453.92-.598.282-.11.705-.24 1.485-.276C5.611 1.449 5.864 1.442 8 1.442zM8 4.865a3.135 3.135 0 1 0 0 6.27 3.135 3.135 0 0 0 0-6.27zM8 6.3a1.7 1.7 0 1 1 0 3.4 1.7 1.7 0 0 1 0-3.4zM12.667 2.853a1.146 1.146 0 1 0 0 2.292 1.146 1.146 0 0 0 0-2.292z"/>
</svg>